<svg xmlns="http://www.w3.org/2000/svg" xmlns:xlink="http://www.w3.org/1999/xlink" width="255.778" height="93.626" viewBox="0 0 255.778 93.626">
  <defs>
    <linearGradient id="linear-gradient" x1="0.294" y1="0.123" x2="1.042" y2="1.152" gradientUnits="objectBoundingBox">
      <stop offset="0" stop-color="#2ae498"/>
      <stop offset="0.011" stop-color="#2ae299"/>
      <stop offset="0.484" stop-color="#359dca"/>
      <stop offset="0.826" stop-color="#3b72e9"/>
      <stop offset="1" stop-color="#3e62f5"/>
    </linearGradient>
  </defs>
  <g id="Group_16832" data-name="Group 16832" transform="translate(0 -71.768)">
    <g id="Group_16823" data-name="Group 16823" transform="translate(105 71.768)">
      <g id="icons" transform="translate(0 0)">
        <path id="share" d="M54.773,20.6,37.1,4.536c-1.339-1.339-2.945,0-2.945,2.142V14.71c-12.583,0-23.293,7.764-28.379,18.206A40.977,40.977,0,0,0,2.031,43.892C1.5,46.57,5.511,47.908,7.117,45.5c5.89-9.371,15.8-15.528,27.041-15.528v8.835c0,2.142,1.606,3.481,2.945,2.142l17.67-16.064A3.257,3.257,0,0,0,54.773,20.6Z" transform="translate(-1.982 -4)"/>
      </g>
      <g id="icons-2" data-name="icons" transform="translate(0.001 50.869)">
        <path id="share-2" data-name="share" d="M2.785,30.157,20.455,46.22c1.339,1.339,2.945,0,2.945-2.142V36.047c12.583,0,23.292-7.764,28.379-18.206A40.977,40.977,0,0,0,55.527,6.864c.535-2.677-3.48-4.016-5.087-1.606-5.89,9.371-15.8,15.528-27.041,15.528V11.951c0-2.142-1.606-3.481-2.945-2.142L2.785,25.873A3.257,3.257,0,0,0,2.785,30.157Z" transform="translate(-1.982 -4)"/>
      </g>
    </g>
    <g id="Logo" transform="translate(-1 66.779)">
      <g id="Group_3240" data-name="Group 3240" transform="translate(1 5)">
        <path id="Path_3323" data-name="Path 3323" d="M49.417,5h0a4.092,4.092,0,0,0-4.078,4.078V28.216a26.265,26.265,0,1,0,0,38.057V67.89a4.092,4.092,0,0,0,4.078,4.078h0a4.092,4.092,0,0,0,4.078-4.078V9.078A4.092,4.092,0,0,0,49.417,5Z" transform="translate(-1 -5)" fill="url(#linear-gradient)"/>
        <g id="Group_3239" data-name="Group 3239" transform="translate(8.192 24.061)">
          <g id="Group_3237" data-name="Group 3237" transform="translate(0 5.29)" opacity="0.12">
            <path id="Path_3324" data-name="Path 3324" d="M59.447,103.525v1.359c0,3.453-1.469,7.567-4.225,12.122a60.391,60.391,0,0,1-5.473,7.531,98.3,98.3,0,0,1-8.376,8.78,95.936,95.936,0,0,1-8.339-8.706c-1.286-1.506-2.425-2.976-3.453-4.445-.11-.147-.22-.294-.294-.4a44.272,44.272,0,0,1-3.233-5.253l-.11-.22a20.939,20.939,0,0,1-2.645-9.331V103.6a19,19,0,0,1,5.731-13.629A17.8,17.8,0,0,1,41.374,84.9a17.506,17.506,0,0,1,12.343,5.069c.331.331.661.7.992,1.065a2.984,2.984,0,0,1,.331.367c.073.073.147.184.22.257A19.328,19.328,0,0,1,59.447,103.525Z" transform="translate(-23.3 -84.9)"/>
          </g>
          <g id="Group_3238" data-name="Group 3238">
            <path id="Path_3325" data-name="Path 3325" d="M59.447,89.125v1.359c0,3.453-1.469,7.567-4.225,12.122a60.4,60.4,0,0,1-5.473,7.531,98.318,98.318,0,0,1-8.376,8.78,95.941,95.941,0,0,1-8.339-8.706c-1.286-1.506-2.425-2.976-3.453-4.445-.11-.147-.22-.294-.294-.4a44.274,44.274,0,0,1-3.233-5.253l-.11-.22A20.939,20.939,0,0,1,23.3,90.557V89.2a19,19,0,0,1,5.731-13.629A17.8,17.8,0,0,1,41.374,70.5a17.506,17.506,0,0,1,12.343,5.069c.331.331.661.7.992,1.065a2.984,2.984,0,0,1,.331.367c.073.073.147.184.22.257A19.328,19.328,0,0,1,59.447,89.125Z" transform="translate(-23.3 -70.5)" fill="#fff"/>
          </g>
        </g>
        <path id="Path_3326" data-name="Path 3326" d="M46.018,91.8a10.347,10.347,0,0,0-10.359,10.359,10.462,10.462,0,0,0,1.322,5.106L30.7,113.584a42.472,42.472,0,0,0,3.233,5.253l7.384-7.384a10.105,10.105,0,0,0,4.7,1.139,10.4,10.4,0,0,0,0-20.792Z" transform="translate(-19.79 -59.914)" fill="#3e62f5"/>
        <path id="Path_3327" data-name="Path 3327" d="M58.386,99.361a6.807,6.807,0,0,0-3.122,2.682.957.957,0,0,0,.588,1.433.135.135,0,0,1,.11.037.936.936,0,0,0,.992-.478,4.81,4.81,0,0,1,2.2-1.873,4.728,4.728,0,0,1,3.086-.22.871.871,0,0,0,.992-.331c.037-.037.037-.073.073-.11a.929.929,0,0,0-.514-1.433A6.545,6.545,0,0,0,58.386,99.361Z" transform="translate(-35.243 -64.353)" fill="#fff"/>
      </g>
      <g id="Group_3241" data-name="Group 3241" transform="translate(1 82.768)">
        <path id="Path_3328" data-name="Path 3328" d="M1.98-12.147H5.07c2.6,0,4.845-1.552,4.845-4.723s-2.24-4.723-4.845-4.723H1.98ZM3.788-13.74v-6.275h1.12a2.884,2.884,0,0,1,3.144,3.144A2.874,2.874,0,0,1,4.908-13.74Zm8.273-6.248a1.044,1.044,0,0,0,1.08-1.053,1.041,1.041,0,0,0-1.08-1.039,1.026,1.026,0,0,0-1.053,1.039A1.029,1.029,0,0,0,12.061-19.988Zm-.85,7.841h1.7v-6.8h-1.7ZM18.944-17.3l.108-1.646a2.594,2.594,0,0,0-.742-.108,2.38,2.38,0,0,0-2.051,1.35v-1.242h-1.7v6.8h1.7v-2.5c0-2.024.864-2.821,1.822-2.821A2.238,2.238,0,0,1,18.944-17.3ZM26.2-15.778a3.235,3.235,0,0,0-3.414-3.279,3.291,3.291,0,0,0-3.36,3.509,3.369,3.369,0,0,0,3.455,3.509,3.029,3.029,0,0,0,3.158-2.038l-1.592-.432a1.448,1.448,0,0,1-1.538,1.039A1.729,1.729,0,0,1,21.13-15.1h5.047C26.191-15.238,26.2-15.535,26.2-15.778Zm-5.034-.567a1.589,1.589,0,0,1,1.619-1.417,1.48,1.48,0,0,1,1.592,1.417Zm9.406,4.305a2.936,2.936,0,0,0,3.2-2.294l-1.66-.337a1.407,1.407,0,0,1-1.485,1.161c-1.053,0-1.741-.8-1.741-2.038s.688-2.038,1.741-2.038a1.423,1.423,0,0,1,1.485,1.2l1.66-.324a2.927,2.927,0,0,0-3.2-2.348,3.323,3.323,0,0,0-3.455,3.509A3.323,3.323,0,0,0,30.577-12.039Zm8.394-.175L38.849-13.7a1.831,1.831,0,0,1-.8.162c-.526,0-.877-.351-.877-1v-2.982H38.89v-1.431H37.176v-2h-1.7v2H34.328v1.431h1.147v3.144a2.173,2.173,0,0,0,2.4,2.335A3.2,3.2,0,0,0,38.971-12.215Zm4.224.175a3.414,3.414,0,0,0,3.549-3.509,3.414,3.414,0,0,0-3.549-3.509,3.414,3.414,0,0,0-3.549,3.509A3.414,3.414,0,0,0,43.195-12.039Zm0-1.471a1.838,1.838,0,0,1-1.835-2.038,1.838,1.838,0,0,1,1.835-2.038,1.845,1.845,0,0,1,1.835,2.038A1.845,1.845,0,0,1,43.195-13.51ZM52.412-17.3l.108-1.646a2.594,2.594,0,0,0-.742-.108,2.38,2.38,0,0,0-2.051,1.35v-1.242h-1.7v6.8h1.7v-2.5c0-2.024.864-2.821,1.822-2.821A2.238,2.238,0,0,1,52.412-17.3Zm1.943-2.686a1.044,1.044,0,0,0,1.08-1.053,1.041,1.041,0,0,0-1.08-1.039A1.026,1.026,0,0,0,53.3-21.041,1.029,1.029,0,0,0,54.356-19.988Zm-.85,7.841h1.7v-6.8h-1.7Zm5.722.108c1.565,0,2.618-.945,2.618-2.119,0-2.78-3.738-1.822-3.738-3.023,0-.391.364-.621.9-.621a1.382,1.382,0,0,1,1.336.985l1.377-.58a2.732,2.732,0,0,0-2.74-1.66c-1.484,0-2.416.837-2.416,1.9,0,2.578,3.711,1.741,3.711,3.023,0,.432-.418.769-1.053.769a1.615,1.615,0,0,1-1.579-1.255l-1.39.567A3.012,3.012,0,0,0,59.227-12.039Zm7.787-.175L66.893-13.7a1.831,1.831,0,0,1-.8.162c-.526,0-.877-.351-.877-1v-2.982h1.714v-1.431H65.219v-2h-1.7v2H62.372v1.431h1.147v3.144a2.173,2.173,0,0,0,2.4,2.335A3.2,3.2,0,0,0,67.014-12.215Z" transform="translate(-1.98 22.08)" fill="#0c0a29"/>
      </g>
    </g>
    <g id="Group_16831" data-name="Group 16831" transform="translate(-0.222)">
      <g id="logo-wpml-otgs" transform="translate(199.222 71.779)">
        <path id="Path_25536" data-name="Path 25536" d="M41.817,59.482c.8,1.721.676,4.365,1.783,5.718.123.061.184.123.307.184,6.7-.369,7.07-7.993,3.812-11.558a5.414,5.414,0,0,0-6.148-.861c-13.28,5.718-26.006,2.09-33.692-5.841A25.944,25.944,0,0,1,.194,31.754C-1.9,13.248,13.351,1.5,23.8.214A28.768,28.768,0,0,1,47.9,8.452c6.456,6.394,9.9,16.047,7.808,27.113-.922,5.041-3.935,11.374-10.7,11.374a10.055,10.055,0,0,1-7.316-3.2,9.771,9.771,0,0,1-3.074-6.578c-.676-10.021,12.3-12.788,11.436-22.871A7.512,7.512,0,0,0,43.907,9.62C39.972,5.87,32.1,4.456,24.971,5.931,16.118,7.714,7.633,15.768,6.158,25.421a27.561,27.561,0,0,0,7.378,22.748c5.164,5.1,12.6,7.931,21.826,5.779,2.951-.676,5.226-3.443,10.083-2.705a6.714,6.714,0,0,1,4.119,2.152c3.873,3.627,3.259,11.251-1.783,12.972-2.644.922-7.378.184-9.468-2.09l-.061-.061a3.259,3.259,0,0,1-.738-.615,4.1,4.1,0,0,1-1.23-3.443c.123-2.09,1.476-3.689,2.951-3.566a2.18,2.18,0,0,1,1.537.861A3.994,3.994,0,0,1,41.817,59.482Z" transform="translate(0 0)" fill="#33879e"/>
      </g>
      <g id="Group_16829" data-name="Group 16829" transform="translate(199.222 143.742)">
        <path id="Path_25537" data-name="Path 25537" d="M96.19,25.462a2.285,2.285,0,0,0,.4-.92,3.739,3.739,0,0,0,.094-.849,5.416,5.416,0,0,0-.118-1.061,2.189,2.189,0,0,0-1.273-1.6,3.038,3.038,0,0,0-1.3-.236H92.723v5.753h.943a3.47,3.47,0,0,0,1.6-.307A2.344,2.344,0,0,0,96.19,25.462Zm2.782-2.216a3.933,3.933,0,0,1-.4,1.792,3.659,3.659,0,0,1-1.108,1.3,5.163,5.163,0,0,1-1.533.755,6.278,6.278,0,0,1-1.769.236H92.723v3.938a1.426,1.426,0,0,0,.118.566.736.736,0,0,0,.448.377,3.574,3.574,0,0,0,.589.118,4.761,4.761,0,0,0,.778.071v.66H89.069v-.66q.212-.035.636-.071a2.094,2.094,0,0,0,.589-.118.667.667,0,0,0,.4-.354,1.457,1.457,0,0,0,.118-.589V21.9a1.627,1.627,0,0,0-.094-.589.623.623,0,0,0-.425-.377,4.079,4.079,0,0,0-.684-.165c-.235-.024-.424-.047-.589-.071v-.66h5.942a4.661,4.661,0,0,1,2.947.872A2.96,2.96,0,0,1,98.972,23.245ZM88.408,20.7a1.488,1.488,0,0,0-.519.118,2.458,2.458,0,0,0-.566.259,2,2,0,0,0-.519.472,3.015,3.015,0,0,0-.354.731c-.424,1.415-.943,3.065-1.509,4.952s-1.2,3.891-1.863,6.036h-.849L78.953,23.245,75.534,33.266h-.8c-.613-2.146-1.226-4.362-1.863-6.673-.66-2.311-1.085-3.843-1.3-4.622a2.063,2.063,0,0,0-.236-.519,1.869,1.869,0,0,0-.448-.4,1.889,1.889,0,0,0-.542-.236,2.823,2.823,0,0,0-.566-.094v-.684h5.305v.66a7.339,7.339,0,0,0-1.179.141c-.33.071-.5.189-.5.33a.978.978,0,0,0,.024.236,2.06,2.06,0,0,0,.047.236c.141.542.4,1.415.755,2.664s.872,3.089,1.58,5.565l3.254-9.644h.9l3.277,9.856c.448-1.509.826-2.853,1.132-3.985s.589-2.1.778-2.9c.141-.566.236-.967.283-1.179a2.305,2.305,0,0,0,.047-.542c0-.212-.141-.377-.424-.519a4.034,4.034,0,0,0-1.391-.283v-.637h4.716Z" transform="translate(-69.781 -20.039)" fill="#33879e"/>
        <path id="Path_25538" data-name="Path 25538" d="M185.87,29.187l-.283,3.867H175.425v-.66q.212-.035.636-.071a2.1,2.1,0,0,0,.59-.118.667.667,0,0,0,.4-.354,1.455,1.455,0,0,0,.118-.589v-9.29a1.309,1.309,0,0,0-.118-.542.755.755,0,0,0-.424-.377,3.231,3.231,0,0,0-.589-.212,2.639,2.639,0,0,0-.637-.118v-.684H180.9v.66a4.4,4.4,0,0,0-.66.094c-.283.047-.471.118-.589.142a.624.624,0,0,0-.424.377,1.519,1.519,0,0,0-.118.566v8.748a9.166,9.166,0,0,0,.047.943.932.932,0,0,0,.283.519,1.129,1.129,0,0,0,.637.212,7.847,7.847,0,0,0,1.155.047c.236,0,.472,0,.708-.024.236,0,.472-.047.707-.071.212-.047.4-.094.589-.141a1.06,1.06,0,0,0,.4-.236A7.724,7.724,0,0,0,184.5,30.6a8.1,8.1,0,0,0,.684-1.391h.684Zm-10.988,3.867h-5.753v-.66a5.822,5.822,0,0,0,.8-.071,1.994,1.994,0,0,0,.66-.165,1.166,1.166,0,0,0,.424-.4,1.006,1.006,0,0,0,.141-.566V21.76h-.141l-4.433,11.082h-.448l-4.221-11.318H161.8v7.758A7.924,7.924,0,0,0,161.938,31a1.622,1.622,0,0,0,.448.849,2.074,2.074,0,0,0,.825.377,4.708,4.708,0,0,0,.825.189v.66h-5.258l.213-.66a4.182,4.182,0,0,0,.66-.141,1.643,1.643,0,0,0,.708-.307,1.4,1.4,0,0,0,.448-.778,9.892,9.892,0,0,0,.118-1.768V22.75a2.649,2.649,0,0,0-.141-.943,1.317,1.317,0,0,0-.4-.589,2.128,2.128,0,0,0-.684-.377,5.033,5.033,0,0,0-.825-.141v-.66h4.433l3.726,9.738,3.159-8.135c.118-.307.212-.613.307-.943.071-.33.118-.542.141-.66h4.244v.66a4.205,4.205,0,0,0-.66.071,4.379,4.379,0,0,0-.59.142.624.624,0,0,0-.424.377,1.425,1.425,0,0,0-.118.566v9.385a1.23,1.23,0,0,0,.118.542.848.848,0,0,0,.424.377,1.809,1.809,0,0,0,.59.165,4.843,4.843,0,0,0,.66.094Z" transform="translate(-129.092 -20.039)" fill="#c9471f"/>
      </g>
    </g>
  </g>
</svg>
